<svg width="24" height="24" viewBox="0 0 24 24" fill="none" xmlns="http://www.w3.org/2000/svg">
	<mask id="mask0_720_1474" style="mask-type:luminance" maskUnits="userSpaceOnUse" x="2" y="2" width="20" height="20">
		<path d="M21.6635 10.1818H12.3448V14.0455H17.7087C17.2087 16.5 15.1177 17.9091 12.3448 17.9091C9.07188 17.9091 6.43537 15.2727 6.43537 12C6.43537 8.72728 9.07188 6.09091 12.3448 6.09091C13.754 6.09091 15.0267 6.59091 16.0268 7.40909L18.9361 4.5C17.1632 2.95455 14.8904 2 12.3448 2C6.79903 2 2.34424 6.45455 2.34424 12C2.34424 17.5455 6.79903 22 12.3448 22C17.3451 22 21.8908 18.3636 21.8908 12C21.8908 11.4091 21.7998 10.7727 21.6635 10.1818Z" fill="white"/>
	</mask>
	<g mask="url(#mask0_720_1474)">
		<path d="M1.43506 17.9091V6.09094L9.16275 12L1.43506 17.9091Z" fill="#FBBC05"/>
	</g>
	<mask id="mask1_720_1474" style="mask-type:luminance" maskUnits="userSpaceOnUse" x="2" y="2" width="20" height="20">
		<path d="M21.6635 10.1818H12.3448V14.0455H17.7087C17.2087 16.5 15.1177 17.9091 12.3448 17.9091C9.07188 17.9091 6.43537 15.2727 6.43537 12C6.43537 8.72728 9.07188 6.09091 12.3448 6.09091C13.754 6.09091 15.0267 6.59091 16.0268 7.40909L18.9361 4.5C17.1632 2.95455 14.8904 2 12.3448 2C6.79903 2 2.34424 6.45455 2.34424 12C2.34424 17.5455 6.79903 22 12.3448 22C17.3451 22 21.8908 18.3636 21.8908 12C21.8908 11.4091 21.7998 10.7727 21.6635 10.1818Z" fill="white"/>
	</mask>
	<g mask="url(#mask1_720_1474)">
		<path d="M1.43506 6.09095L9.16275 12L12.3447 9.22731L23.2544 7.45458V1.09094H1.43506V6.09095Z" fill="#EA4335"/>
	</g>
	<mask id="mask2_720_1474" style="mask-type:luminance" maskUnits="userSpaceOnUse" x="2" y="2" width="20" height="20">
		<path d="M21.6635 10.1818H12.3448V14.0455H17.7087C17.2087 16.5 15.1177 17.9091 12.3448 17.9091C9.07188 17.9091 6.43537 15.2727 6.43537 12C6.43537 8.72728 9.07188 6.09091 12.3448 6.09091C13.754 6.09091 15.0267 6.59091 16.0268 7.40909L18.9361 4.5C17.1632 2.95455 14.8904 2 12.3448 2C6.79903 2 2.34424 6.45455 2.34424 12C2.34424 17.5455 6.79903 22 12.3448 22C17.3451 22 21.8908 18.3636 21.8908 12C21.8908 11.4091 21.7998 10.7727 21.6635 10.1818Z" fill="white"/>
	</mask>
	<g mask="url(#mask2_720_1474)">
		<path d="M1.43506 17.9091L15.0722 7.45458L18.6633 7.90913L23.2544 1.09094V22.9091H1.43506V17.9091Z" fill="#34A853"/>
	</g>
	<mask id="mask3_720_1474" style="mask-type:luminance" maskUnits="userSpaceOnUse" x="2" y="2" width="20" height="20">
		<path d="M21.6635 10.1818H12.3448V14.0455H17.7087C17.2087 16.5 15.1177 17.9091 12.3448 17.9091C9.07188 17.9091 6.43537 15.2727 6.43537 12C6.43537 8.72728 9.07188 6.09091 12.3448 6.09091C13.754 6.09091 15.0267 6.59091 16.0268 7.40909L18.9361 4.5C17.1632 2.95455 14.8904 2 12.3448 2C6.79903 2 2.34424 6.45455 2.34424 12C2.34424 17.5455 6.79903 22 12.3448 22C17.3451 22 21.8908 18.3636 21.8908 12C21.8908 11.4091 21.7998 10.7727 21.6635 10.1818Z" fill="white"/>
	</mask>
	<g mask="url(#mask3_720_1474)">
		<path d="M23.2552 22.9091L9.1635 12L7.34521 10.6364L23.2552 6.09094V22.9091Z" fill="#4285F4"/>
	</g>
</svg>
