<svg width="25" height="24" viewBox="0 0 25 24" fill="none" xmlns="http://www.w3.org/2000/svg">
	<path d="M3.79932 15.0002V16.8C3.79932 17.9201 3.79932 18.4798 4.01732 18.9076C4.20907 19.2839 4.51483 19.5905 4.89117 19.7822C5.3186 20 5.87842 20 6.9964 20H21.8005M3.79932 15.0002V5M3.79932 15.0002L7.65292 11.7891L7.65611 11.7865C8.35323 11.2056 8.70246 10.9146 9.08115 10.7964C9.52849 10.6567 10.0104 10.6788 10.4432 10.8584C10.8102 11.0106 11.132 11.3324 11.7755 11.9759L11.782 11.9823C12.4355 12.6358 12.7631 12.9635 13.136 13.1153C13.5772 13.2951 14.0684 13.3106 14.5206 13.1606C14.904 13.0334 15.2541 12.7275 15.9543 12.115L21.8003 7" stroke="#ADADAD" stroke-width="2" stroke-linecap="round" stroke-linejoin="round"/>
</svg>
