<svg width="24" height="24" viewBox="0 0 24 24" fill="none" xmlns="http://www.w3.org/2000/svg">
<path d="M3 15.0002V16.8C3 17.9201 3 18.4798 3.218 18.9076C3.40976 19.2839 3.71551 19.5905 4.09186 19.7822C4.51928 20 5.07911 20 6.19708 20H21.0012M3 15.0002V5M3 15.0002L6.8536 11.7891L6.85679 11.7865C7.55391 11.2056 7.90315 10.9146 8.28183 10.7964C8.72918 10.6567 9.21105 10.6788 9.64391 10.8584C10.0109 11.0106 10.3327 11.3324 10.9762 11.9759L10.9826 11.9823C11.6362 12.6358 11.9638 12.9635 12.3367 13.1153C12.7779 13.2951 13.2691 13.3106 13.7213 13.1606C14.1047 13.0334 14.4548 12.7275 15.155 12.115L21.0009 7" stroke="#F4F4F4" stroke-width="2" stroke-linecap="round" stroke-linejoin="round"/>
</svg>
