<svg width="24" height="24" viewBox="0 0 24 24" fill="none" xmlns="http://www.w3.org/2000/svg">
<path fill-rule="evenodd" clip-rule="evenodd" d="M12.4064 4.91306C12.1406 4.84597 11.8624 4.84597 11.5966 4.91306C11.3353 4.97903 11.0688 5.15043 10.1546 5.80061L6.52648 8.38106C5.85341 8.85977 5.66943 9.00117 5.54111 9.1642C5.41078 9.32979 5.3133 9.51876 5.25389 9.72094C5.19541 9.92 5.18681 10.1519 5.18681 10.9778V16.2141C5.18681 16.9442 5.18751 17.4376 5.21862 17.8184C5.24887 18.1886 5.30333 18.3724 5.3671 18.4975C5.52568 18.8088 5.77873 19.0618 6.08997 19.2204C6.21512 19.2842 6.39889 19.3386 6.76913 19.3689C7.14988 19.4 7.64331 19.4007 8.37337 19.4007H15.6297C16.3597 19.4007 16.8532 19.4 17.2339 19.3689C17.6041 19.3386 17.7879 19.2842 17.9131 19.2204C18.2243 19.0618 18.4774 18.8088 18.6359 18.4975C18.6997 18.3724 18.7542 18.1886 18.7844 17.8184C18.8155 17.4376 18.8162 16.9442 18.8162 16.2141V10.9778C18.8162 10.1519 18.8076 9.92 18.7491 9.72094C18.6897 9.51876 18.5923 9.32979 18.4619 9.1642C18.3336 9.00117 18.1496 8.85977 17.4766 8.38106L13.8484 5.80061C12.9342 5.15043 12.6677 4.97903 12.4064 4.91306ZM11.156 3.16782C11.711 3.02772 12.2921 3.02772 12.847 3.16782C13.4791 3.32739 14.0377 3.72542 14.766 4.2443C14.8073 4.27375 14.8492 4.30358 14.8917 4.33378L18.5198 6.91422C18.5505 6.93607 18.5808 6.9576 18.6108 6.97887C19.1514 7.36286 19.5673 7.65825 19.8764 8.05095C20.1485 8.39673 20.3521 8.79133 20.4761 9.21352C20.617 9.693 20.6167 10.2031 20.6163 10.8662C20.6162 10.903 20.6162 10.9401 20.6162 10.9778V16.251C20.6162 16.9348 20.6162 17.5022 20.5784 17.9649C20.5391 18.4465 20.4544 18.8935 20.2397 19.3147C19.9086 19.9646 19.3802 20.493 18.7303 20.8242C18.3091 21.0388 17.862 21.1235 17.3805 21.1629C16.9177 21.2007 16.3504 21.2007 15.6665 21.2007H8.3365C7.65264 21.2007 7.08531 21.2007 6.62255 21.1629C6.141 21.1235 5.69398 21.0388 5.27278 20.8242C4.62285 20.493 4.09444 19.9646 3.76329 19.3147C3.54867 18.8935 3.46394 18.4465 3.4246 17.9649C3.38679 17.5022 3.3868 16.9348 3.38681 16.251L3.38681 10.9778C3.38681 10.9401 3.38679 10.9029 3.38676 10.8662C3.38634 10.2031 3.38602 9.693 3.52689 9.21352C3.65094 8.79133 3.85451 8.39673 4.12666 8.05095C4.43574 7.65825 4.85163 7.36286 5.39225 6.97887C5.42219 6.9576 5.45251 6.93607 5.48322 6.91422L9.11137 4.33378C9.15383 4.30358 9.1957 4.27375 9.23702 4.24431C9.9653 3.72542 10.5239 3.32739 11.156 3.16782Z" fill="#ADADAD"/>
</svg>
