<svg width="25" height="24" viewBox="0 0 25 24" fill="none" xmlns="http://www.w3.org/2000/svg">
	<path fill-rule="evenodd" clip-rule="evenodd" d="M13.0065 4.91306C12.7407 4.84597 12.4625 4.84597 12.1967 4.91306C11.9354 4.97903 11.6689 5.15043 10.7547 5.80061L7.12658 8.38106C6.45351 8.85977 6.26953 9.00117 6.14121 9.1642C6.01088 9.32979 5.91339 9.51876 5.85399 9.72094C5.7955 9.92 5.78691 10.1519 5.78691 10.9778V16.2141C5.78691 16.9442 5.78761 17.4376 5.81872 17.8184C5.84897 18.1886 5.90343 18.3724 5.96719 18.4975C6.12578 18.8088 6.37882 19.0618 6.69006 19.2204C6.81522 19.2842 6.99898 19.3386 7.36923 19.3689C7.74998 19.4 8.2434 19.4007 8.97347 19.4007H16.2298C16.9598 19.4007 17.4532 19.4 17.834 19.3689C18.2042 19.3386 18.388 19.2842 18.5132 19.2204C18.8244 19.0618 19.0775 18.8088 19.236 18.4975C19.2998 18.3724 19.3543 18.1886 19.3845 17.8184C19.4156 17.4376 19.4163 16.9442 19.4163 16.2141V10.9778C19.4163 10.1519 19.4077 9.92 19.3492 9.72094C19.2898 9.51876 19.1923 9.32979 19.062 9.1642C18.9337 9.00117 18.7497 8.85977 18.0767 8.38106L14.4485 5.80061C13.5343 5.15043 13.2678 4.97903 13.0065 4.91306ZM11.7561 3.16782C12.3111 3.02772 12.8921 3.02772 13.4471 3.16782C14.0792 3.32739 14.6378 3.72542 15.3661 4.2443C15.4074 4.27375 15.4493 4.30358 15.4918 4.33378L19.1199 6.91422C19.1506 6.93607 19.1809 6.9576 19.2109 6.97887C19.7515 7.36286 20.1674 7.65825 20.4765 8.05095C20.7486 8.39673 20.9522 8.79133 21.0762 9.21352C21.2171 9.693 21.2168 10.2031 21.2164 10.8662C21.2163 10.903 21.2163 10.9401 21.2163 10.9778V16.251C21.2163 16.9348 21.2163 17.5022 21.1785 17.9649C21.1392 18.4465 21.0545 18.8935 20.8398 19.3147C20.5087 19.9646 19.9803 20.493 19.3304 20.8242C18.9092 21.0388 18.4621 21.1235 17.9806 21.1629C17.5178 21.2007 16.9505 21.2007 16.2666 21.2007H8.9366C8.25274 21.2007 7.68541 21.2007 7.22265 21.1629C6.74109 21.1235 6.29408 21.0388 5.87288 20.8242C5.22295 20.493 4.69454 19.9646 4.36338 19.3147C4.14877 18.8935 4.06404 18.4465 4.0247 17.9649C3.98689 17.5022 3.9869 16.9348 3.98691 16.251L3.98691 10.9778C3.98691 10.9401 3.98689 10.9029 3.98686 10.8662C3.98644 10.2031 3.98612 9.693 4.12699 9.21352C4.25104 8.79133 4.45461 8.39673 4.72676 8.05095C5.03584 7.65825 5.45173 7.36286 5.99235 6.97887C6.02229 6.9576 6.05261 6.93607 6.08332 6.91422L9.71146 4.33378C9.75392 4.30358 9.79579 4.27375 9.83712 4.24431C10.5654 3.72542 11.124 3.32739 11.7561 3.16782Z" fill="#F4F4F4"/>
</svg>
