<svg width="24" height="24" viewBox="0 0 24 24" fill="none" xmlns="http://www.w3.org/2000/svg">
<path d="M3.4991 7.98993L11.2248 12.3449C11.3959 12.4414 11.6041 12.4414 11.7752 12.3449L19.5278 7.97479M11.5 21.1245V12.5M20 8.04692V16.9531C20 17.1619 19.8885 17.3542 19.7085 17.4557L11.7752 21.9276C11.6041 22.0241 11.3959 22.0241 11.2248 21.9276L3.29148 17.4557C3.1116 17.3542 3.00002 17.1619 3.00002 16.9531L3 8.04692C3 7.83811 3.11158 7.64572 3.29147 7.54432L11.2248 3.07235C11.3959 2.97588 11.6041 2.97588 11.7752 3.07235L19.7085 7.54432C19.8884 7.64572 20 7.83811 20 8.04692Z" stroke="#F4F4F4" stroke-width="2" stroke-linecap="round" stroke-linejoin="round"/>
</svg>
