<svg width="24" height="24" viewBox="0 0 24 24" fill="none" xmlns="http://www.w3.org/2000/svg">
	<path d="M3.49837 6.98993L11.2241 11.3449C11.3952 11.4414 11.6034 11.4414 11.7745 11.3449L19.527 6.97479M11.4993 20.1245V11.5M19.9993 7.04692V15.9531C19.9993 16.1619 19.8877 16.3542 19.7078 16.4557L11.7745 20.9276C11.6034 21.0241 11.3952 21.0241 11.2241 20.9276L3.29075 16.4557C3.11086 16.3542 2.99929 16.1619 2.99929 15.9531L2.99927 7.04692C2.99927 6.83811 3.11084 6.64572 3.29074 6.54432L11.2241 2.07235C11.3952 1.97588 11.6034 1.97588 11.7745 2.07235L19.7078 6.54432C19.8876 6.64572 19.9993 6.83811 19.9993 7.04692Z" stroke="#ADADAD" stroke-width="2" stroke-linecap="round" stroke-linejoin="round"/>
</svg>
