<svg width="25" height="24" viewBox="0 0 25 24" fill="none" xmlns="http://www.w3.org/2000/svg">
	<g clip-path="url(#clip0_1009_10830)">
		<path d="M15.6708 21L15.2089 21.8869C15.5189 22.0484 15.8907 22.0362 16.1895 21.855C16.4884 21.6737 16.6708 21.3495 16.6708 21H15.6708ZM12.1995 19.1922L12.6614 18.3053C12.3719 18.1545 12.0271 18.1545 11.7376 18.3053L12.1995 19.1922ZM8.72809 21H7.72809C7.72809 21.3495 7.91057 21.6736 8.20938 21.8549C8.5082 22.0362 8.87998 22.0484 9.18998 21.8869L8.72809 21ZM9.37974 4.31146L9.29612 5.30795L9.37974 4.31146ZM10.841 3.68102L10.0666 3.04836L10.0666 3.04836L10.841 3.68102ZM7.45406 6.25386L6.45704 6.33098L7.45406 6.25386ZM9.3235 4.30674L9.40712 3.31024L9.3235 4.30674ZM6.85331 7.83443L7.51657 8.58282L7.51657 8.58282L6.85331 7.83443ZM7.45859 6.31243L8.45562 6.23531L7.45859 6.31243ZM6.81035 10.6262L6.14709 11.3746L6.14709 11.3746L6.81035 10.6262ZM6.81035 7.87251L6.14709 7.12412L6.14709 7.12412L6.81035 7.87251ZM7.45859 12.1862L6.46157 12.1091L6.46157 12.1091L7.45859 12.1862ZM6.85331 10.6642L7.51657 9.91585L7.51657 9.91585L6.85331 10.6642ZM9.3235 14.1919L9.40712 15.1884H9.40712L9.3235 14.1919ZM7.45406 12.2448L8.45109 12.3219V12.3219L7.45406 12.2448ZM10.841 14.8176L11.6154 14.185L11.6154 14.185L10.841 14.8176ZM9.37974 14.1872L9.29612 13.1907H9.29612L9.37974 14.1872ZM13.5214 14.8624L14.2958 15.4951L14.2958 15.4951L13.5214 14.8624ZM10.8776 14.8624L10.1031 15.4951L10.1031 15.4951L10.8776 14.8624ZM15.0192 14.1872L15.1028 13.1907L15.1028 13.1907L15.0192 14.1872ZM13.5579 14.8176L12.7835 14.185L12.7835 14.185L13.5579 14.8176ZM16.9449 12.2448L17.9419 12.1677V12.1677L16.9449 12.2448ZM15.0754 14.1919L14.9918 15.1884H14.9918L15.0754 14.1919ZM17.5456 10.6642L18.2089 11.4126L18.2089 11.4126L17.5456 10.6642ZM16.9403 12.1862L15.9433 12.2634V12.2634L16.9403 12.1862ZM17.5886 7.87251L18.2518 7.12412L18.2518 7.12412L17.5886 7.87251ZM17.5886 10.6262L16.9253 9.87777L16.9253 9.87777L17.5886 10.6262ZM16.9403 6.31243L15.9433 6.23531V6.23532L16.9403 6.31243ZM17.5456 7.83443L16.8824 8.58282L16.8824 8.58282L17.5456 7.83443ZM15.0754 4.30674L14.9918 3.31024V3.31024L15.0754 4.30674ZM16.9449 6.25386L17.9419 6.33098V6.33098L16.9449 6.25386ZM13.5579 3.68102L14.3323 3.04836L14.3323 3.04836L13.5579 3.68102ZM15.0192 4.31146L15.1028 5.30795H15.1028L15.0192 4.31146ZM13.5214 3.63627L12.7469 4.26893L12.7469 4.26894L13.5214 3.63627ZM10.8776 3.63627L11.652 4.26893V4.26893L10.8776 3.63627ZM9.59596 14.1831L9.64199 13.1842L9.59596 14.1831ZM14.803 14.1831L14.849 15.1821L14.803 14.1831ZM15.6708 14.1352L15.3985 13.173L15.6708 14.1352ZM16.1327 20.1131L12.6614 18.3053L11.7376 20.0791L15.2089 21.8869L16.1327 20.1131ZM11.7376 18.3053L8.2662 20.113L9.18998 21.8869L12.6614 20.0791L11.7376 18.3053ZM12.7469 4.26894L12.7835 4.31369L14.3323 3.04836L14.2958 3.0036L12.7469 4.26894ZM15.1028 5.30795L15.159 5.30323L14.9918 3.31024L14.9356 3.31496L15.1028 5.30795ZM15.9478 6.17674L15.9433 6.23531L17.9374 6.38955L17.9419 6.33098L15.9478 6.17674ZM16.8824 8.58282L16.9253 8.6209L18.2518 7.12412L18.2089 7.08604L16.8824 8.58282ZM16.9253 9.87777L16.8823 9.91585L18.2089 11.4126L18.2518 11.3745L16.9253 9.87777ZM15.9433 12.2634L15.9478 12.3219L17.9419 12.1677L17.9374 12.1091L15.9433 12.2634ZM15.159 13.1954L15.1028 13.1907L14.9356 15.1837L14.9918 15.1884L15.159 13.1954ZM12.7835 14.185L12.7469 14.2297L14.2958 15.4951L14.3323 15.4503L12.7835 14.185ZM11.652 14.2297L11.6154 14.185L10.0666 15.4503L10.1031 15.4951L11.652 14.2297ZM9.29612 13.1907L9.23988 13.1954L9.40712 15.1884L9.46335 15.1837L9.29612 13.1907ZM8.45109 12.3219L8.45562 12.2634L6.46157 12.1091L6.45704 12.1677L8.45109 12.3219ZM7.51657 9.91585L7.4736 9.87777L6.14709 11.3746L6.19006 11.4126L7.51657 9.91585ZM7.4736 8.6209L7.51657 8.58282L6.19006 7.08604L6.14709 7.12412L7.4736 8.6209ZM8.45562 6.23531L8.45109 6.17674L6.45704 6.33098L6.46157 6.38955L8.45562 6.23531ZM9.23989 5.30323L9.29612 5.30795L9.46335 3.31496L9.40712 3.31024L9.23989 5.30323ZM11.6154 4.31368L11.652 4.26893L10.1031 3.00361L10.0666 3.04836L11.6154 4.31368ZM9.29612 5.30795C10.19 5.38296 11.0514 5.00416 11.6154 4.31368L10.0666 3.04836C9.90763 3.24293 9.68158 3.33327 9.46335 3.31496L9.29612 5.30795ZM8.45109 6.17674C8.40894 5.6319 8.83586 5.26933 9.23989 5.30323L9.40712 3.31024C7.67912 3.16524 6.32742 4.6552 6.45704 6.33098L8.45109 6.17674ZM7.51657 8.58282C8.18215 7.99295 8.52391 7.11821 8.45562 6.23531L6.46157 6.38955C6.48288 6.66499 6.37422 6.92283 6.19006 7.08604L7.51657 8.58282ZM7.47361 9.87777C7.10808 9.55383 7.10808 8.94484 7.47361 8.6209L6.14709 7.12412C4.88359 8.24389 4.88359 10.2548 6.14709 11.3746L7.47361 9.87777ZM8.45562 12.2634C8.52391 11.3805 8.18215 10.5057 7.51657 9.91585L6.19006 11.4126C6.37422 11.5758 6.48288 11.8337 6.46157 12.1091L8.45562 12.2634ZM12.7469 14.2297C12.454 14.5883 11.9449 14.5883 11.652 14.2297L10.1031 15.4951C11.1963 16.8332 13.2026 16.8332 14.2958 15.4951L12.7469 14.2297ZM16.8824 9.91585C16.2168 10.5057 15.875 11.3805 15.9433 12.2634L17.9374 12.1091C17.916 11.8337 18.0247 11.5758 18.2089 11.4126L16.8824 9.91585ZM16.9253 8.6209C17.2908 8.94484 17.2908 9.55383 16.9253 9.87777L18.2518 11.3746C19.5153 10.2548 19.5153 8.24389 18.2518 7.12412L16.9253 8.6209ZM15.9433 6.23532C15.875 7.11821 16.2168 7.99296 16.8824 8.58282L18.2089 7.08604C18.0247 6.92283 17.916 6.66499 17.9374 6.38955L15.9433 6.23532ZM15.159 5.30323C15.5631 5.26933 15.99 5.6319 15.9478 6.17674L17.9419 6.33098C18.0715 4.6552 16.7198 3.16524 14.9918 3.31024L15.159 5.30323ZM12.7835 4.31368C13.3476 5.00417 14.2089 5.38296 15.1028 5.30795L14.9356 3.31496C14.7174 3.33327 14.4913 3.24293 14.3323 3.04836L12.7835 4.31368ZM14.2958 3.00361C13.2026 1.66546 11.1963 1.66546 10.1031 3.00361L11.652 4.26893C11.9449 3.91036 12.454 3.91036 12.7469 4.26893L14.2958 3.00361ZM11.6154 14.185C11.125 13.5846 10.41 13.2196 9.64199 13.1842L9.54994 15.1821C9.73862 15.1908 9.92815 15.2809 10.0666 15.4503L11.6154 14.185ZM9.64199 13.1842C9.52735 13.1789 9.41184 13.181 9.29612 13.1907L9.46335 15.1837C9.49245 15.1813 9.52134 15.1808 9.54994 15.1821L9.64199 13.1842ZM15.1028 13.1907C14.9871 13.181 14.8716 13.1789 14.7569 13.1842L14.849 15.1821C14.8776 15.1808 14.9065 15.1813 14.9356 15.1837L15.1028 13.1907ZM14.7569 13.1842C13.9889 13.2196 13.2739 13.5846 12.7835 14.185L14.3323 15.4503C14.4708 15.2809 14.6603 15.1908 14.849 15.1821L14.7569 13.1842ZM15.9478 12.3219C15.981 12.7507 15.711 13.0845 15.3985 13.173L15.9432 15.0974C17.1893 14.7446 18.0471 13.5281 17.9419 12.1677L15.9478 12.3219ZM15.3985 13.173C15.3245 13.1939 15.2446 13.2026 15.159 13.1954L14.9918 15.1884C15.3204 15.216 15.6413 15.1828 15.9432 15.0974L15.3985 13.173ZM14.6708 14.1352V21H16.6708V14.1352H14.6708ZM9.23988 13.1954C9.15428 13.2026 9.0744 13.1939 9.00047 13.173L8.45571 15.0974C8.75758 15.1828 9.07854 15.216 9.40712 15.1884L9.23988 13.1954ZM9.00047 13.173C8.68795 13.0845 8.41792 12.7507 8.45109 12.3219L6.45704 12.1677C6.35181 13.5281 7.20959 14.7446 8.45571 15.0974L9.00047 13.173ZM7.72809 14.1352V21H9.72809V14.1352H7.72809Z" fill="#ADADAD"/>
	</g>
	<defs>
		<clipPath id="clip0_1009_10830">
			<rect width="24.0013" height="24" fill="white" transform="translate(0.199463)"/>
		</clipPath>
	</defs>
</svg>
