<svg width="24" height="24" viewBox="0 0 24 24" fill="none" xmlns="http://www.w3.org/2000/svg">
<g clip-path="url(#clip0_1056_13405)">
<path d="M15.4714 21L15.0095 21.8869C15.3195 22.0484 15.6913 22.0362 15.9901 21.855C16.2889 21.6737 16.4714 21.3495 16.4714 21H15.4714ZM12 19.1922L12.4619 18.3053C12.1724 18.1545 11.8276 18.1545 11.5381 18.3053L12 19.1922ZM8.52863 21H7.52863C7.52863 21.3495 7.71111 21.6736 8.00992 21.8549C8.30874 22.0362 8.68052 22.0484 8.99052 21.8869L8.52863 21ZM9.18027 4.31146L9.09666 5.30795L9.18027 4.31146ZM10.6415 3.68102L9.86712 3.04836L9.86712 3.04836L10.6415 3.68102ZM7.2546 6.25386L6.25758 6.33098L7.2546 6.25386ZM9.12404 4.30674L9.20766 3.31024L9.12404 4.30674ZM6.65385 7.83443L7.31711 8.58282L7.31711 8.58282L6.65385 7.83443ZM7.25913 6.31243L8.25615 6.23531L7.25913 6.31243ZM6.61088 10.6262L5.94763 11.3746L5.94763 11.3746L6.61088 10.6262ZM6.61089 7.87251L5.94763 7.12412L5.94763 7.12412L6.61089 7.87251ZM7.25913 12.1862L6.26211 12.1091L6.26211 12.1091L7.25913 12.1862ZM6.65385 10.6642L7.31711 9.91585L7.31711 9.91585L6.65385 10.6642ZM9.12404 14.1919L9.20766 15.1884L9.20766 15.1884L9.12404 14.1919ZM7.2546 12.2448L8.25162 12.3219L8.25162 12.3219L7.2546 12.2448ZM10.6415 14.8176L11.416 14.185L11.416 14.185L10.6415 14.8176ZM9.18027 14.1872L9.09666 13.1907L9.09665 13.1907L9.18027 14.1872ZM13.3219 14.8624L14.0963 15.4951L14.0963 15.4951L13.3219 14.8624ZM10.6781 14.8624L9.90367 15.4951L9.90368 15.4951L10.6781 14.8624ZM14.8197 14.1872L14.9033 13.1907L14.9033 13.1907L14.8197 14.1872ZM13.3585 14.8176L12.584 14.185L12.584 14.185L13.3585 14.8176ZM16.7454 12.2448L17.7424 12.1677L17.7424 12.1677L16.7454 12.2448ZM14.876 14.1919L14.7923 15.1884L14.7923 15.1884L14.876 14.1919ZM17.3461 10.6642L18.0094 11.4126L18.0094 11.4126L17.3461 10.6642ZM16.7409 12.1862L15.7438 12.2634L15.7438 12.2634L16.7409 12.1862ZM17.3891 7.87251L18.0524 7.12412L18.0524 7.12412L17.3891 7.87251ZM17.3891 10.6262L16.7259 9.87777L16.7259 9.87777L17.3891 10.6262ZM16.7409 6.31243L15.7438 6.23531L15.7438 6.23532L16.7409 6.31243ZM17.3461 7.83443L16.6829 8.58282L16.6829 8.58282L17.3461 7.83443ZM14.876 4.30674L14.7923 3.31024L14.7923 3.31024L14.876 4.30674ZM16.7454 6.25386L17.7424 6.33098L17.7424 6.33098L16.7454 6.25386ZM13.3585 3.68102L14.1329 3.04836L14.1329 3.04836L13.3585 3.68102ZM14.8197 4.31146L14.9033 5.30795L14.9033 5.30795L14.8197 4.31146ZM13.3219 3.63627L12.5475 4.26893L12.5475 4.26894L13.3219 3.63627ZM10.6781 3.63627L11.4525 4.26893L11.4525 4.26893L10.6781 3.63627ZM9.3965 14.1831L9.44253 13.1842L9.3965 14.1831ZM14.6035 14.1831L14.6495 15.1821L14.6035 14.1831ZM15.4714 14.1352L15.199 13.173L15.4714 14.1352ZM15.9333 20.1131L12.4619 18.3053L11.5381 20.0791L15.0095 21.8869L15.9333 20.1131ZM11.5381 18.3053L8.06674 20.113L8.99052 21.8869L12.4619 20.0791L11.5381 18.3053ZM12.5475 4.26894L12.584 4.31369L14.1329 3.04836L14.0963 3.0036L12.5475 4.26894ZM14.9033 5.30795L14.9596 5.30323L14.7923 3.31024L14.7361 3.31496L14.9033 5.30795ZM15.7484 6.17674L15.7438 6.23531L17.7379 6.38955L17.7424 6.33098L15.7484 6.17674ZM16.6829 8.58282L16.7259 8.6209L18.0524 7.12412L18.0094 7.08604L16.6829 8.58282ZM16.7259 9.87777L16.6829 9.91585L18.0094 11.4126L18.0524 11.3746L16.7259 9.87777ZM15.7438 12.2634L15.7484 12.3219L17.7424 12.1677L17.7379 12.1091L15.7438 12.2634ZM14.9596 13.1954L14.9033 13.1907L14.7361 15.1837L14.7923 15.1884L14.9596 13.1954ZM12.584 14.185L12.5475 14.2297L14.0963 15.4951L14.1329 15.4503L12.584 14.185ZM11.4525 14.2297L11.416 14.185L9.86711 15.4503L9.90367 15.4951L11.4525 14.2297ZM9.09665 13.1907L9.04042 13.1954L9.20766 15.1884L9.26389 15.1837L9.09665 13.1907ZM8.25162 12.3219L8.25615 12.2634L6.26211 12.1091L6.25758 12.1677L8.25162 12.3219ZM7.31711 9.91585L7.27414 9.87777L5.94763 11.3746L5.9906 11.4126L7.31711 9.91585ZM7.27414 8.6209L7.31711 8.58282L5.9906 7.08604L5.94763 7.12412L7.27414 8.6209ZM8.25615 6.23531L8.25162 6.17674L6.25758 6.33098L6.26211 6.38955L8.25615 6.23531ZM9.04042 5.30323L9.09666 5.30795L9.26389 3.31496L9.20766 3.31024L9.04042 5.30323ZM11.416 4.31368L11.4525 4.26893L9.90368 3.00361L9.86712 3.04836L11.416 4.31368ZM9.09666 5.30795C9.99055 5.38296 10.8519 5.00416 11.416 4.31368L9.86712 3.04836C9.70817 3.24293 9.48211 3.33327 9.26389 3.31496L9.09666 5.30795ZM8.25162 6.17674C8.20948 5.6319 8.6364 5.26933 9.04042 5.30323L9.20766 3.31024C7.47965 3.16524 6.12796 4.6552 6.25758 6.33098L8.25162 6.17674ZM7.31711 8.58282C7.98269 7.99295 8.32444 7.11821 8.25615 6.23531L6.26211 6.38955C6.28341 6.66499 6.17475 6.92283 5.99059 7.08604L7.31711 8.58282ZM7.27414 9.87777C6.90862 9.55383 6.90862 8.94484 7.27414 8.6209L5.94763 7.12412C4.68413 8.24389 4.68412 10.2548 5.94763 11.3746L7.27414 9.87777ZM8.25615 12.2634C8.32444 11.3805 7.98269 10.5057 7.31711 9.91585L5.99059 11.4126C6.17475 11.5758 6.28341 11.8337 6.26211 12.1091L8.25615 12.2634ZM12.5475 14.2297C12.2545 14.5883 11.7455 14.5883 11.4525 14.2297L9.90368 15.4951C10.9969 16.8332 13.0031 16.8332 14.0963 15.4951L12.5475 14.2297ZM16.6829 9.91585C16.0173 10.5057 15.6756 11.3805 15.7438 12.2634L17.7379 12.1091C17.7166 11.8337 17.8252 11.5758 18.0094 11.4126L16.6829 9.91585ZM16.7259 8.6209C17.0914 8.94484 17.0914 9.55383 16.7259 9.87777L18.0524 11.3746C19.3159 10.2548 19.3159 8.24389 18.0524 7.12412L16.7259 8.6209ZM15.7438 6.23532C15.6756 7.11821 16.0173 7.99296 16.6829 8.58282L18.0094 7.08604C17.8252 6.92283 17.7166 6.66499 17.7379 6.38955L15.7438 6.23532ZM14.9596 5.30323C15.3636 5.26933 15.7905 5.6319 15.7484 6.17674L17.7424 6.33098C17.872 4.6552 16.5203 3.16524 14.7923 3.31024L14.9596 5.30323ZM12.584 4.31368C13.1481 5.00417 14.0095 5.38296 14.9033 5.30795L14.7361 3.31496C14.5179 3.33327 14.2918 3.24293 14.1329 3.04836L12.584 4.31368ZM14.0963 3.00361C13.0031 1.66546 10.9969 1.66546 9.90368 3.00361L11.4525 4.26893C11.7455 3.91036 12.2545 3.91036 12.5475 4.26893L14.0963 3.00361ZM11.416 14.185C10.9255 13.5846 10.2105 13.2196 9.44253 13.1842L9.35047 15.1821C9.53915 15.1908 9.72868 15.2809 9.86712 15.4503L11.416 14.185ZM9.44253 13.1842C9.32789 13.1789 9.21238 13.181 9.09666 13.1907L9.26389 15.1837C9.29299 15.1813 9.32188 15.1808 9.35047 15.1821L9.44253 13.1842ZM14.9033 13.1907C14.7876 13.181 14.6721 13.1789 14.5575 13.1842L14.6495 15.1821C14.6781 15.1808 14.707 15.1813 14.7361 15.1837L14.9033 13.1907ZM14.5575 13.1842C13.7895 13.2196 13.0745 13.5846 12.584 14.185L14.1329 15.4503C14.2713 15.2809 14.4608 15.1908 14.6495 15.1821L14.5575 13.1842ZM15.7484 12.3219C15.7815 12.7507 15.5115 13.0845 15.199 13.173L15.7437 15.0974C16.9899 14.7446 17.8476 13.5281 17.7424 12.1677L15.7484 12.3219ZM15.199 13.173C15.1251 13.1939 15.0452 13.2026 14.9596 13.1954L14.7923 15.1884C15.1209 15.216 15.4419 15.1828 15.7437 15.0974L15.199 13.173ZM14.4714 14.1352V21H16.4714V14.1352H14.4714ZM9.04042 13.1954C8.95482 13.2026 8.87494 13.1939 8.801 13.173L8.25625 15.0974C8.55811 15.1828 8.87908 15.216 9.20766 15.1884L9.04042 13.1954ZM8.801 13.173C8.48848 13.0845 8.21845 12.7507 8.25162 12.3219L6.25758 12.1677C6.15235 13.5281 7.01012 14.7446 8.25625 15.0974L8.801 13.173ZM7.52863 14.1352V21H9.52863V14.1352H7.52863Z" fill="#F4F4F4"/>
</g>
<defs>
<clipPath id="clip0_1056_13405">
<rect width="24.0013" height="24" fill="white"/>
</clipPath>
</defs>
</svg>
