<svg width="25" height="24" viewBox="0 0 25 24" fill="none" xmlns="http://www.w3.org/2000/svg">
	<path fill-rule="evenodd" clip-rule="evenodd" d="M7.85349 3.32861L10.509 3.32861C11.1098 3.3286 11.6084 3.3286 12.0165 3.35797C12.4406 3.3885 12.8362 3.45411 13.2157 3.62112C14.0066 3.96909 14.6383 4.60079 14.9862 5.39162C15.1532 5.77119 15.2188 6.16672 15.2494 6.59085C15.2788 6.99898 15.2787 7.4975 15.2787 8.09835V8.13068C15.2787 8.62774 14.8758 9.03068 14.3787 9.03068C13.8817 9.03068 13.4787 8.62774 13.4787 8.13068C13.4787 7.48932 13.4782 7.05589 13.454 6.72008C13.4305 6.39298 13.3879 6.22855 13.3387 6.11655C13.172 5.73783 12.8695 5.43532 12.4908 5.26869C12.3788 5.21941 12.2144 5.17687 11.8873 5.15333C11.5515 5.12916 11.118 5.12861 10.4767 5.12861H7.88973C7.17197 5.12861 6.68687 5.12929 6.31231 5.15939C5.94801 5.18867 5.76685 5.2414 5.64346 5.30305C5.32304 5.46315 5.06325 5.72294 4.90315 6.04337C4.84149 6.16675 4.78876 6.34791 4.75949 6.71221C4.72939 7.08677 4.72871 7.57187 4.72871 8.28963V15.3938C4.72871 16.1116 4.72939 16.5967 4.75949 16.9713C4.78876 17.3356 4.84149 17.5167 4.90315 17.6401C5.06325 17.9605 5.32304 18.2203 5.64346 18.3804C5.76685 18.4421 5.94801 18.4948 6.31231 18.5241C6.68686 18.5542 7.17197 18.5549 7.88973 18.5549H10.3177C11.0355 18.5549 11.5206 18.5542 11.8951 18.5241C12.2594 18.4948 12.4406 18.4421 12.564 18.3804C12.8844 18.2203 13.1442 17.9605 13.3043 17.6401C13.366 17.5167 13.4187 17.3356 13.448 16.9713C13.4781 16.5967 13.4787 16.1116 13.4787 15.3938V15.1162C13.4787 14.6191 13.8817 14.2162 14.3787 14.2162C14.8758 14.2162 15.2787 14.6191 15.2787 15.1162V15.4301C15.2787 16.1024 15.2788 16.6602 15.2422 17.1154C15.2041 17.5891 15.1222 18.029 14.9145 18.4447C14.5801 19.1138 14.0376 19.6563 13.3685 19.9906C12.9529 20.1983 12.5129 20.2802 12.0393 20.3183C11.5841 20.3549 11.0263 20.3549 10.354 20.3549H7.85349C7.18114 20.3549 6.62335 20.3549 6.16813 20.3183C5.69451 20.2802 5.25456 20.1983 4.8389 19.9906C4.1698 19.6563 3.6273 19.1138 3.29297 18.4447C3.08527 18.029 3.00333 17.5891 2.96527 17.1154C2.92869 16.6602 2.9287 16.1024 2.92871 15.4301V8.25339C2.9287 7.58105 2.92869 7.02325 2.96527 6.56803C3.00333 6.09441 3.08527 5.65446 3.29297 5.23881C3.6273 4.5697 4.1698 4.0272 4.8389 3.69287C5.25456 3.48517 5.69451 3.40323 6.16813 3.36517C6.62335 3.32859 7.18114 3.3286 7.85349 3.32861ZM17.2568 7.93305C17.6071 7.58038 18.177 7.57844 18.5296 7.92871L21.6067 10.9849C21.7768 11.1538 21.8725 11.3837 21.8725 11.6234C21.8725 11.8632 21.7768 12.093 21.6067 12.262L18.5296 15.3182C18.177 15.6684 17.6071 15.6665 17.2568 15.3138C16.9066 14.9612 16.9085 14.3913 17.2612 14.041L18.7892 12.5234H9.10372C8.60667 12.5234 8.20372 12.1205 8.20372 11.6234C8.20372 11.1264 8.60667 10.7234 9.10372 10.7234H18.7892L17.2612 9.20584C16.9085 8.85557 16.9066 8.28572 17.2568 7.93305Z" fill="#ADADAD"/>
</svg>
