<svg width="24" height="24" viewBox="0 0 24 24" fill="none" xmlns="http://www.w3.org/2000/svg">
<path fill-rule="evenodd" clip-rule="evenodd" d="M7.45408 3.32861L10.1096 3.32861C10.7104 3.3286 11.209 3.3286 11.6171 3.35797C12.0412 3.3885 12.4367 3.45411 12.8163 3.62112C13.6071 3.96909 14.2388 4.60079 14.5868 5.39162C14.7538 5.77119 14.8194 6.16672 14.85 6.59085C14.8793 6.99898 14.8793 7.4975 14.8793 8.09835V8.13068C14.8793 8.62773 14.4764 9.03068 13.9793 9.03068C13.4823 9.03068 13.0793 8.62773 13.0793 8.13068C13.0793 7.48932 13.0788 7.05589 13.0546 6.72008C13.0311 6.39298 12.9885 6.22855 12.9392 6.11655C12.7726 5.73783 12.4701 5.43532 12.0914 5.26869C11.9794 5.21941 11.8149 5.17687 11.4879 5.15333C11.152 5.12916 10.7186 5.12861 10.0773 5.12861H7.49032C6.77255 5.12861 6.28745 5.12929 5.9129 5.15939C5.54859 5.18867 5.36743 5.2414 5.24405 5.30305C4.92363 5.46315 4.66384 5.72294 4.50373 6.04337C4.44208 6.16675 4.38935 6.34791 4.36007 6.71221C4.32997 7.08677 4.3293 7.57187 4.3293 8.28963V15.3938C4.3293 16.1116 4.32997 16.5967 4.36007 16.9713C4.38935 17.3356 4.44208 17.5167 4.50373 17.6401C4.66384 17.9605 4.92363 18.2203 5.24405 18.3804C5.36743 18.4421 5.54859 18.4948 5.9129 18.5241C6.28745 18.5542 6.77255 18.5549 7.49032 18.5549H9.9183C10.6361 18.5549 11.1212 18.5542 11.4957 18.5241C11.86 18.4948 12.0412 18.4421 12.1646 18.3804C12.485 18.2203 12.7448 17.9605 12.9049 17.6401C12.9665 17.5167 13.0193 17.3356 13.0485 16.9713C13.0786 16.5967 13.0793 16.1116 13.0793 15.3938V15.1162C13.0793 14.6191 13.4823 14.2162 13.9793 14.2162C14.4764 14.2162 14.8793 14.6191 14.8793 15.1162V15.4301C14.8793 16.1024 14.8793 16.6602 14.8428 17.1154C14.8047 17.5891 14.7228 18.029 14.5151 18.4447C14.1807 19.1138 13.6382 19.6563 12.9691 19.9906C12.5535 20.1983 12.1135 20.2802 11.6399 20.3183C11.1847 20.3549 10.6269 20.3549 9.95454 20.3549H7.45407C6.78173 20.3549 6.22394 20.3549 5.76872 20.3183C5.29509 20.2802 4.85515 20.1983 4.43949 19.9906C3.77038 19.6563 3.22788 19.1138 2.89355 18.4447C2.68586 18.029 2.60392 17.5891 2.56586 17.1154C2.52928 16.6602 2.52929 16.1024 2.5293 15.4301V8.25339C2.52929 7.58105 2.52928 7.02325 2.56586 6.56803C2.60392 6.09441 2.68586 5.65446 2.89355 5.23881C3.22788 4.5697 3.77038 4.0272 4.43949 3.69287C4.85515 3.48517 5.29509 3.40323 5.76872 3.36517C6.22394 3.32859 6.78173 3.3286 7.45408 3.32861ZM16.8574 7.93305C17.2077 7.58038 17.7775 7.57844 18.1302 7.92871L21.2073 10.9849C21.3774 11.1538 21.4731 11.3837 21.4731 11.6234C21.4731 11.8632 21.3774 12.093 21.2073 12.262L18.1302 15.3182C17.7775 15.6684 17.2077 15.6665 16.8574 15.3138C16.5072 14.9612 16.5091 14.3913 16.8618 14.041L18.3898 12.5234H8.70431C8.20725 12.5234 7.80431 12.1205 7.80431 11.6234C7.80431 11.1264 8.20725 10.7234 8.70431 10.7234H18.3898L16.8618 9.20584C16.5091 8.85557 16.5072 8.28572 16.8574 7.93305Z" fill="#ADADAD"/>
</svg>
