<svg width="22" height="21" viewBox="0 0 22 21" fill="none" xmlns="http://www.w3.org/2000/svg">
<path fill-rule="evenodd" clip-rule="evenodd" d="M5.67757 0.965577H8.76441C9.46526 0.965567 10.0437 0.965559 10.5166 0.999597C11.0071 1.0349 11.4599 1.11052 11.893 1.30109C12.8001 1.70021 13.5247 2.42479 13.9238 3.33188C14.1144 3.76501 14.19 4.21787 14.2253 4.70837C14.2594 5.18127 14.2594 5.75968 14.2594 6.46054V6.49635C14.2594 7.04272 13.8164 7.48564 13.2701 7.48564C12.7237 7.48564 12.2808 7.04272 12.2808 6.49635C12.2808 5.75074 12.2802 5.24384 12.2519 4.85042C12.2242 4.46659 12.174 4.26774 12.1128 4.12873C11.913 3.67464 11.5503 3.31191 11.0962 3.11211C10.9572 3.05095 10.7583 3.00069 10.3745 2.97307C9.98109 2.94475 9.47419 2.94415 8.72858 2.94415H5.71773C4.88329 2.94415 4.31596 2.9449 3.87716 2.98016C3.44962 3.01451 3.23041 3.07683 3.07736 3.15331C2.69316 3.34528 2.38166 3.65678 2.18968 4.04098C2.11321 4.19403 2.05089 4.41324 2.01653 4.84078C1.98127 5.27958 1.98053 5.84691 1.98053 6.68135V14.9497C1.98053 15.7841 1.98127 16.3515 2.01653 16.7903C2.05089 17.2178 2.11321 17.437 2.18968 17.5901C2.38166 17.9743 2.69316 18.2858 3.07736 18.4777C3.23041 18.5542 3.44962 18.6165 3.87716 18.6509C4.31596 18.6862 4.88329 18.6869 5.71773 18.6869H8.54357C9.37801 18.6869 9.94534 18.6862 10.3841 18.6509C10.8117 18.6165 11.0309 18.5542 11.1839 18.4777C11.5681 18.2858 11.8796 17.9743 12.0716 17.5901C12.1481 17.437 12.2104 17.2178 12.2448 16.7903C12.28 16.3515 12.2808 15.7841 12.2808 14.9497V14.6266C12.2808 14.0802 12.7237 13.6373 13.2701 13.6373C13.8164 13.6373 14.2594 14.0802 14.2594 14.6266V14.9898C14.2594 15.7741 14.2594 16.4213 14.217 16.9487C14.173 17.4964 14.0786 18.0001 13.8415 18.4744C13.4581 19.2419 12.8358 19.8642 12.0683 20.2477C11.594 20.4847 11.0903 20.5791 10.5426 20.6231C10.0152 20.6655 9.36804 20.6655 8.58382 20.6655H5.67748C4.89326 20.6655 4.24611 20.6655 3.71867 20.6231C3.17097 20.5791 2.6673 20.4847 2.19298 20.2477C1.4255 19.8642 0.803246 19.2419 0.41976 18.4744C0.182755 18.0001 0.0883308 17.4964 0.0443178 16.9487C0.00193119 16.4213 0.00194126 15.7741 0.00195354 14.9899V6.64118C0.00194126 5.85693 0.00193119 5.20976 0.0443178 4.6823C0.0883308 4.1346 0.182755 3.63092 0.41976 3.1566C0.803246 2.38913 1.4255 1.76687 2.19298 1.38338C2.6673 1.14638 3.17098 1.05195 3.71868 1.00794C4.24614 0.965554 4.89331 0.965564 5.67757 0.965577ZM16.6611 6.30735C17.0461 5.91969 17.6725 5.91755 18.0601 6.30257L21.6415 9.85954C21.8285 10.0453 21.9336 10.2979 21.9336 10.5615C21.9336 10.825 21.8285 11.0777 21.6415 11.2634L18.0601 14.8203C17.6725 15.2054 17.0461 15.2032 16.6611 14.8156C16.2761 14.4279 16.2782 13.8015 16.6659 13.4165L18.5444 11.5507H7.13065C6.58428 11.5507 6.14137 11.1078 6.14137 10.5615C6.14137 10.0151 6.58428 9.57217 7.13065 9.57217H18.5444L16.6659 7.7064C16.2782 7.32138 16.2761 6.695 16.6611 6.30735Z" fill="#FE8A00"/>
</svg>
